<?xml version="1.0" encoding="UTF-8" standalone="no"?>
<!-- Created with Inkscape (http://www.inkscape.org/) -->

<svg
   width="113.41876mm"
   height="18.175837mm"
   viewBox="0 0 113.41876 18.175837"
   version="1.1"
   id="svg1"
   xml:space="preserve"
   xmlns="http://www.w3.org/2000/svg"
   xmlns:svg="http://www.w3.org/2000/svg"><defs
     id="defs1" /><g
     id="layer1"
     style="display:inline"
     transform="translate(-0.03497136,-0.00718686)"><path
       style="font-size:25.4025px;font-family:Cantarell;-inkscape-font-specification:'Cantarell, @wght=800';font-variation-settings:'wght' 800;letter-spacing:0.529216;word-spacing:0;text-anchor:middle;fill:#a71f3d;stroke:#000000;stroke-width:0;stroke-linecap:square;stroke-linejoin:bevel;stroke-opacity:0"
       d="m 0.03497136,18.165472 4.47080494,0.01755 2.142294,-7.057556 7.7180177,0.0283 1.602656,-3.8611582 -8.2471837,-0.02837 1.071595,-3.37851 8.6325007,0.03189 0.01516,-3.86115094 -12.0449732,-0.04928 z M 24.403087,17.979764 c 4.801035,0.01885 7.911783,-2.941066 7.929731,-7.513481 l 0.04058,-10.33873014 -4.343794,-0.017051 -0.04258,10.84677614 c -0.008,2.032184 -1.155768,3.221608 -3.086343,3.21403 -2.260805,-0.0089 -3.576241,-1.411189 -3.567067,-3.748201 l 0.04058,-10.33872914 -4.394599,-0.01725 -0.04158,10.59275714 c -0.01785,4.547015 2.791038,7.301532 7.465062,7.31988 z m 9.565136,-0.208175 4.3946,0.01725 0.05414,-13.7934532 2.260805,0.0089 c 1.65115,0.0065 2.613346,0.797744 2.608161,2.118664 -0.0047,1.193911 -0.718843,1.927783 -2.014361,1.922698 l -4.191379,-0.01645 -0.01466,3.7341402 3.581724,0.01406 c 4.318392,0.01695 7.198924,-2.5374104 7.213482,-6.2461522 0.01336,-3.403904 -2.417681,-5.34405094 -6.558257,-5.36030494 l -7.26506,-0.02852 z m 9.779888,0.03839 5.283679,0.02074 -4.746018,-7.563228 -4.801036,-0.01885 z m 6.73593,0.03044 4.470802,0.01755 0.0692,-17.62919314 -4.470801,-0.01755 z m 15.401426,0.320719 c 2.794259,0.01097 5.185361,-0.817942 7.173327,-2.486712 l 0.03211,-8.1795462 -7.925519,-0.03111 -0.01456,3.7087402 3.734141,0.01466 -0.01855,4.724824 0.670526,-2.563038 c -0.586749,0.632762 -1.705946,1.009411 -3.103065,1.003927 -3.175295,-0.01246 -5.148593,-2.077826 -5.135431,-5.4309292 0.01286,-3.276895 1.924918,-5.022183 5.506641,-5.008123 1.498738,0.0059 3.250398,0.292191 4.417303,0.703215 l 1.232872,-3.449928 C 70.959326,0.44997086 68.954137,0.03565686 66.947352,0.02777886 60.69839,0.00324886 56.695463,3.7471358 56.673825,9.2594326 c -0.02084,5.3090884 3.673942,8.8799694 9.211639,8.9017074 z m 8.70974,-0.219843 4.699424,0.01845 4.735846,-15.7310812 -1.21931,-0.0048 4.84082,15.7686722 4.851842,0.01905 -5.951142,-17.65282614 -5.613907,-0.02204 z m 4.916902,-3.613288 8.077937,0.03171 -0.898927,-3.966349 -6.274372,-0.02463 z m 14.61751,3.692047 4.267587,0.01675 0.04567,-11.6342492 -0.536148,0.683761 4.159072,8.2467982 3.3277,0.01306 4.04587,-8.2145902 -0.27723,-0.559943 -0.0452,11.5072402 4.26759,0.01675 0.0692,-17.62919314 -4.19138,-0.01645 -6.16902,11.96585614 1.80356,0.0071 -6.455922,-12.01541414 -4.242177,-0.01665 z"
       id="shape0-8"
       aria-label="FURIGAM" /></g></svg>
